<svg width="21" height="21" viewBox="0 0 21 21" fill="none" xmlns="http://www.w3.org/2000/svg">
<path d="M10.0625 0C7.40378 0.0322598 4.86304 1.10277 2.98291 2.98291C1.10277 4.86304 0.0322598 7.40378 0 10.0625C0.0322598 12.7212 1.10277 15.262 2.98291 17.1421C4.86304 19.0222 7.40378 20.0927 10.0625 20.125C12.7212 20.0927 15.262 19.0222 17.1421 17.1421C19.0222 15.262 20.0927 12.7212 20.125 10.0625C20.0927 7.40378 19.0222 4.86304 17.1421 2.98291C15.262 1.10277 12.7212 0.0322598 10.0625 0ZM15.8125 10.7812H10.7812V15.8125H9.34375V10.7812H4.3125V9.34375H9.34375V4.3125H10.7812V9.34375H15.8125V10.7812Z" fill="black"/>
</svg>
